<svg width="25" height="26" viewBox="0 0 25 26" fill="none" xmlns="http://www.w3.org/2000/svg">
<path d="M13.784 22.5426L5.73632 14.4949L23.3267 14.5055C23.726 14.5055 24.109 14.3469 24.3913 14.0645C24.6737 13.7822 24.8323 13.3992 24.8323 12.9999C24.8323 12.6006 24.6737 12.2176 24.3913 11.9353C24.109 11.6529 23.726 11.4943 23.3267 11.4943L5.73632 11.5049L13.784 3.45721C14.0652 3.176 14.2232 2.7946 14.2232 2.39691C14.2232 1.99922 14.0652 1.61782 13.784 1.33661C13.5028 1.0554 13.1214 0.89742 12.7237 0.89742C12.326 0.89742 11.9446 1.0554 11.6634 1.33661L1.0604 11.9396C0.923524 12.0798 0.815457 12.2455 0.742316 12.4273C0.590826 12.794 0.590825 13.2058 0.742314 13.5725C0.815456 13.7543 0.923522 13.92 1.0604 14.0602L11.6634 24.6632C11.9446 24.9444 12.326 25.1024 12.7237 25.1024C13.1214 25.1024 13.5028 24.9444 13.784 24.6632C14.0652 24.382 14.2232 24.0006 14.2232 23.6029C14.2232 23.2052 14.0652 22.8238 13.784 22.5426Z" fill="#1F1F1F"/>
</svg>
