<svg width="48" height="15" viewBox="0 0 48 15" fill="none" xmlns="http://www.w3.org/2000/svg">
<path d="M10.1016 3.33332H8.25997C8.09947 2.72648 7.81581 2.15916 7.42664 1.66666H10.1016C10.3226 1.66666 10.5346 1.57886 10.6909 1.42258C10.8472 1.2663 10.935 1.05434 10.935 0.833331C10.935 0.612318 10.8472 0.400357 10.6909 0.244077C10.5346 0.0877971 10.3226 0 10.1016 0H0.934994C0.713981 0 0.50202 0.0877971 0.345741 0.244077C0.189461 0.400357 0.101663 0.612318 0.101663 0.833331C0.101663 1.05434 0.189461 1.2663 0.345741 1.42258C0.50202 1.57886 0.713981 1.66666 0.934994 1.66666H3.85165C4.40185 1.66859 4.94028 1.82611 5.40477 2.12102C5.86925 2.41593 6.24085 2.83621 6.47664 3.33332H0.934994C0.713981 3.33332 0.50202 3.42112 0.345741 3.5774C0.189461 3.73368 0.101663 3.94564 0.101663 4.16665C0.101663 4.38767 0.189461 4.59963 0.345741 4.75591C0.50202 4.91219 0.713981 4.99999 0.934994 4.99999H6.76831C6.66841 5.69215 6.32314 6.32538 5.79541 6.78427C5.26769 7.24316 4.59265 7.49716 3.89332 7.49998H0.934994C0.896203 7.49608 0.857119 7.49608 0.818328 7.49998C0.763105 7.49138 0.706884 7.49138 0.651662 7.49998C0.594859 7.51932 0.541435 7.54744 0.493329 7.58331L0.393329 7.64164C0.347681 7.68287 0.308369 7.73061 0.276663 7.78331C0.248753 7.82025 0.223681 7.85925 0.201663 7.89998C0.194245 7.9497 0.194245 8.00025 0.201663 8.04998C0.142279 8.1331 0.107612 8.23132 0.101663 8.33331C0.0977648 8.3721 0.0977648 8.41118 0.101663 8.44998C0.0930653 8.5052 0.0930653 8.56142 0.101663 8.61664C0.121009 8.67344 0.149127 8.72687 0.184996 8.77497C0.184996 8.77497 0.184997 8.84164 0.24333 8.87497L5.24332 14.7083C5.38697 14.8763 5.59147 14.9803 5.81183 14.9975C6.03218 15.0147 6.25034 14.9436 6.41831 14.8C6.58628 14.6563 6.6903 14.4518 6.7075 14.2314C6.72469 14.0111 6.65364 13.7929 6.50998 13.625L2.75166 9.16664H3.85165C4.99836 9.17139 6.1052 8.74611 6.9537 7.97474C7.80221 7.20337 8.33074 6.14196 8.43497 4.99999H10.1016C10.3226 4.99999 10.5346 4.91219 10.6909 4.75591C10.8472 4.59963 10.935 4.38767 10.935 4.16665C10.935 3.94564 10.8472 3.73368 10.6909 3.5774C10.5346 3.42112 10.3226 3.33332 10.1016 3.33332Z" fill="#1F1F1F"/>
<path d="M21.9591 1.454V14H20.3211V1.454H21.9591ZM34.6147 14H32.9767L26.3887 4.01V14H24.7507V1.436H26.3887L32.9767 11.408V1.436H34.6147V14ZM44.013 14L41.025 8.87H39.045V14H37.407V1.454H41.457C42.405 1.454 43.203 1.616 43.851 1.94C44.511 2.264 45.003 2.702 45.327 3.254C45.651 3.806 45.813 4.436 45.813 5.144C45.813 6.008 45.561 6.77 45.057 7.43C44.565 8.09 43.821 8.528 42.825 8.744L45.975 14H44.013ZM39.045 7.556H41.457C42.345 7.556 43.011 7.34 43.455 6.908C43.899 6.464 44.121 5.876 44.121 5.144C44.121 4.4 43.899 3.824 43.455 3.416C43.023 3.008 42.357 2.804 41.457 2.804H39.045V7.556Z" fill="#1F1F1F"/>
</svg>
